<svg width="90" height="90" viewBox="0 0 90 90" fill="none" xmlns="http://www.w3.org/2000/svg">
<path d="M10.1865 31.0342L32.5019 27.791L42.4775 7.56742C42.7499 7.0137 43.1982 6.56546 43.7519 6.293C45.1406 5.60745 46.8281 6.17874 47.5224 7.56742L57.498 27.791L79.8134 31.0342C80.4287 31.1221 80.9912 31.4121 81.4218 31.8516C81.9425 32.3867 82.2294 33.1067 82.2195 33.8532C82.2096 34.5998 81.9037 35.3119 81.3691 35.833L65.2236 51.5743L69.038 73.8018C69.1275 74.3189 69.0703 74.8506 68.8729 75.3368C68.6755 75.823 68.3458 76.2442 67.9212 76.5526C67.4966 76.8609 66.9942 77.0442 66.4707 77.0815C65.9473 77.1188 65.4239 77.0087 64.9599 76.7637L44.9999 66.2696L25.04 76.7637C24.4951 77.0537 23.8622 77.1504 23.2558 77.045C21.7265 76.7813 20.6982 75.3311 20.9618 73.8018L24.7763 51.5743L8.63079 35.833C8.19134 35.4024 7.9013 34.8399 7.81341 34.2246C7.5761 32.6866 8.64837 31.2627 10.1865 31.0342V31.0342Z" fill="#FDCC0D"/>
</svg>
