<svg width="36" height="36" viewBox="0 0 36 36" fill="none" xmlns="http://www.w3.org/2000/svg">
<path d="M34.2483 29.7837L26.9701 22.5055C28.3813 20.2827 29.1973 17.6476 29.1973 14.8267C29.1973 6.90063 22.7497 0.451599 14.8237 0.451599C6.89771 0.451599 0.451599 6.90063 0.451599 14.8267C0.451599 22.7527 6.89771 29.2017 14.8252 29.2017C17.5072 29.2017 20.0195 28.4632 22.1692 27.1793L29.5117 34.5218C32.647 37.6527 37.3851 32.919 34.2483 29.7837ZM4.90743 14.8267C4.90743 9.35887 9.35741 4.90889 14.8252 4.90889C20.293 4.90889 24.743 9.35741 24.743 14.8267C24.743 20.2959 20.293 24.7444 14.8252 24.7444C9.35741 24.7444 4.90743 20.2944 4.90743 14.8267ZM7.84678 12.247C10.7481 5.52162 20.5167 6.30106 22.3564 13.3424C18.6507 8.99328 12.13 8.52532 7.84678 12.247Z" fill="black"/>
</svg>
